<svg width="94" height="94" viewBox="0 0 94 94" fill="none" xmlns="http://www.w3.org/2000/svg">
<path d="M46.976 93.952C20.992 93.952 4.76837e-07 72.96 4.76837e-07 46.976C4.76837e-07 20.992 20.992 -7.62939e-06 46.976 -7.62939e-06C72.96 -7.62939e-06 93.952 20.992 93.952 46.976C93.952 72.96 72.704 93.952 46.976 93.952ZM46.976 84.736C67.84 84.736 84.736 67.84 84.736 46.976C84.736 26.112 67.84 9.216 46.976 9.216C26.112 9.216 9.216 26.112 9.216 46.976C9.216 67.84 26.112 84.736 46.976 84.736ZM42.368 70.528L43.008 53.76L28.928 62.72L24.32 54.784L39.04 46.976L24.32 39.168L28.928 31.232L43.008 40.192L42.368 23.424H51.584L50.944 40.192L65.024 31.232L69.632 39.168L54.912 46.976L69.632 54.784L65.024 62.72L50.944 53.76L51.584 70.528H42.368Z" fill="white"/>
</svg>
